<?xml version="1.0" encoding="UTF-8"?>
<svg width="46px" height="62px" viewBox="0 0 46 62" version="1.1" xmlns="http://www.w3.org/2000/svg" xmlns:xlink="http://www.w3.org/1999/xlink">
    <!-- Generator: Sketch 53.2 (72643) - https://sketchapp.com -->
    <title>logo</title>
    <desc>Created with Sketch.</desc>
    <g id="Symbols" stroke="none" stroke-width="1" fill="none" fill-rule="evenodd">
        <g id="Main/Header" transform="translate(-137.000000, -15.000000)">
            <g id="logo" transform="translate(136.881356, 14.363636)">
                <g id="gem" transform="translate(5.118644, 0.636364)">
                    <path d="M18.3585639,37.4807122 L0.61376484,10.5963957 C0.143258805,9.88332614 0.236187131,8.93423741 0.83571016,8.32869784 L8.56048996,0.526851319 C8.89431016,0.189681055 9.34632075,0.000136690647 9.81863122,0.000136690647 L26.8984965,0.000136690647 C27.3703558,0.000136690647 27.8228175,0.189681055 28.1566377,0.526851319 L35.8809664,8.32869784 C36.4809406,8.93423741 36.5738689,9.88332614 36.1033629,10.5963957 L18.3585639,37.4807122 Z" id="Fill-1" fill="#00CB4A"></path>
                    <path d="M18.3587443,18.1337914 C15.077382,18.1337914 12.4171959,15.4473645 12.4171959,12.1330719 C12.4171959,8.81877938 15.077382,6.13189688 18.3587443,6.13189688 C21.6401066,6.13189688 24.2998416,8.81877938 24.2998416,12.1330719 C24.2998416,15.4473645 21.6401066,18.1337914 18.3587443,18.1337914 Z" id="Fill-3" fill="#FFFFFF"></path>
                    <path d="M16.1597714,13.8139568 C14.5908165,13.8139568 13.3186909,12.5295204 13.3186909,10.9443645 C13.3186909,9.35920863 14.5908165,8.07477218 16.1597714,8.07477218 C17.7287263,8.07477218 19.000852,9.35920863 19.000852,10.9443645 C19.000852,12.5295204 17.7287263,13.8139568 16.1597714,13.8139568 Z" id="Fill-5" fill="#000000"></path>
                </g>
                <path d="M0.118644068,58.9024976 L0.118644068,44.7635917 L2.48289593,44.7635917 L2.48289593,58.4793261 C2.48289593,59.997765 3.06786546,60.2715818 3.79907738,60.2715818 C4.01844095,60.2715818 4.2134308,60.2466894 4.2134308,60.2466894 L4.2134308,62.3874392 C4.2134308,62.3874392 3.84782484,62.4372241 3.43347142,62.4372241 C2.09291624,62.4372241 0.118644068,62.0638375 0.118644068,58.9024976 Z M6.21749308,56.039867 C6.21749308,52.0321842 8.87422971,49.4433704 12.3840469,49.4433704 C15.8694904,49.4433704 17.7218939,52.081969 17.7218939,55.3428787 C17.7218939,55.6664804 17.6487727,56.3883612 17.6487727,56.3883612 L8.65486613,56.3883612 C8.77673479,59.151422 10.7022595,60.5453987 12.8958952,60.5453987 C15.0164098,60.5453987 16.5519548,59.0767447 16.5519548,59.0767447 L17.5269041,60.844108 C17.5269041,60.844108 15.6988743,62.6363636 12.7496529,62.6363636 C8.87422971,62.6363636 6.21749308,59.773733 6.21749308,56.039867 Z M8.72798733,54.5712131 L15.3088946,54.5712131 C15.2357734,52.4055708 13.9195919,51.3600883 12.3352994,51.3600883 C10.5316434,51.3600883 9.06921955,52.5051405 8.72798733,54.5712131 Z M20.9446427,62.3376544 L20.9446427,49.7420797 L23.2357734,49.7420797 L23.2357734,51.4098732 C23.2357734,51.907722 23.1870259,52.3308934 23.1870259,52.3308934 L23.2357734,52.3308934 C23.8207429,50.8622395 25.5512778,49.4433704 27.4768025,49.4433704 C29.5485696,49.4433704 30.7672561,50.4141756 31.1816095,52.306001 L31.230357,52.306001 C31.9128214,50.7875622 33.6189826,49.4433704 35.6176285,49.4433704 C38.3962338,49.4433704 39.6880415,51.061379 39.6880415,54.2725038 L39.6880415,62.3376544 L37.3237896,62.3376544 L37.3237896,54.795245 C37.3237896,53.0278818 36.9825574,51.6339051 35.1301539,51.6339051 C33.399619,51.6339051 32.1078113,53.1274515 31.6690841,54.8450299 C31.5472155,55.3677711 31.498468,55.9402973 31.498468,56.5875007 L31.498468,62.3376544 L29.1342162,62.3376544 L29.1342162,54.795245 C29.1342162,53.152344 28.8904789,51.6339051 26.9893279,51.6339051 C25.1856718,51.6339051 23.9182378,53.152344 23.4551369,54.9445997 C23.3332683,55.4424485 23.3088946,56.0149746 23.3088946,56.5875007 L23.3088946,62.3376544 L20.9446427,62.3376544 Z M43.568881,62.3376544 L43.568881,49.7420797 L45.9331329,49.7420797 L45.9331329,62.3376544 L43.568881,62.3376544 Z M44.7645479,44.6363636 C45.5124245,44.6363636 46.1186441,45.2492373 46.1186441,46.005323 L46.1186441,46.033231 C46.1186441,46.7893166 45.5124245,47.4021903 44.7645479,47.4021903 C44.0166713,47.4021903 43.4104518,46.7893166 43.4104518,46.033231 L43.4104518,46.005323 C43.4104518,45.2492373 44.0166713,44.6363636 44.7645479,44.6363636 Z" id="lemi" fill="#000000"></path>
            </g>
        </g>
    </g>
</svg>