<?xml version="1.0" encoding="UTF-8"?>
<svg width="29px" height="30px" viewBox="0 0 29 30" version="1.1" xmlns="http://www.w3.org/2000/svg" xmlns:xlink="http://www.w3.org/1999/xlink">
    <!-- Generator: Sketch 53.2 (72643) - https://sketchapp.com -->
    <title>gem</title>
    <desc>Created with Sketch.</desc>
    <g id="Symbols" stroke="none" stroke-width="1" fill="none" fill-rule="evenodd">
        <g id="Main/Header" transform="translate(-142.000000, -15.000000)">
            <g id="gem" transform="translate(142.000000, 15.000000)">
                <path d="M14.493603,29.590036 L0.484551189,8.36557554 C0.113099057,7.8026259 0.186463524,7.05334532 0.659771179,6.57528777 L6.75828155,0.415935252 C7.02182381,0.149748201 7.37867428,0.000107913669 7.75155096,0.000107913669 L21.2356551,0.000107913669 C21.6081757,0.000107913669 21.9653823,0.149748201 22.2289245,0.415935252 L28.3270788,6.57528777 C28.8007426,7.05334532 28.874107,7.8026259 28.5026549,8.36557554 L14.493603,29.590036 Z" id="Fill-1" fill="#00CB4A"></path>
                <path d="M14.4937455,14.3161511 C11.9031963,14.3161511 9.80304939,12.1952878 9.80304939,9.57874101 C9.80304939,6.96219424 11.9031963,4.84097122 14.4937455,4.84097122 C17.0842947,4.84097122 19.1840855,6.96219424 19.1840855,9.57874101 C19.1840855,12.1952878 17.0842947,14.3161511 14.4937455,14.3161511 Z" id="Fill-3" fill="#FFFFFF"></path>
                <path d="M12.7577143,10.9057554 C11.5190657,10.9057554 10.514756,9.89172662 10.514756,8.64028777 C10.514756,7.38884892 11.5190657,6.37482014 12.7577143,6.37482014 C13.9963629,6.37482014 15.0006726,7.38884892 15.0006726,8.64028777 C15.0006726,9.89172662 13.9963629,10.9057554 12.7577143,10.9057554 Z" id="Fill-5" fill="#000000"></path>
            </g>
        </g>
    </g>
</svg>